<svg xmlns="http://www.w3.org/2000/svg" xmlns:xlink="http://www.w3.org/1999/xlink" viewBox="0,0,256,256" width="50px" height="50px" fill-rule="nonzero"><g fill="#005f5a" fill-rule="nonzero" stroke="none" stroke-width="1" stroke-linecap="butt" stroke-linejoin="miter" stroke-miterlimit="10" stroke-dasharray="" stroke-dashoffset="0" font-family="none" font-weight="none" font-size="none" text-anchor="none" style="mix-blend-mode: normal"><g transform="scale(5.12,5.12)"><path d="M18.87695,2.02539c-0.3652,-0.00972 -0.70664,0.18047 -0.89062,0.49609l-6.20703,10.26953c-0.28585,0.473 -0.13413,1.08817 0.33887,1.37402c0.473,0.28585 1.08817,0.13413 1.37402,-0.33887l1.94336,1.17383l4.98047,3.00977l20.46289,12.36719c0.0274,0.01654 0.05643,0.02692 0.08398,0.04297c0.18357,0.10699 0.37065,0.20173 0.56055,0.28711c0.08172,0.03678 0.16344,0.07068 0.24609,0.10352c0.15401,0.0611 0.31005,0.11457 0.4668,0.16211c0.07881,0.02397 0.15699,0.04973 0.23633,0.07031c0.22186,0.05736 0.44338,0.10354 0.66797,0.13477c0.06119,0.00856 0.12231,0.01093 0.18359,0.01758c0.17369,0.0187 0.3477,0.03166 0.52148,0.03516c0.04163,0.00087 0.0834,0.00781 0.125,0.00781c0.05031,0 0.10015,-0.0085 0.15039,-0.00977c0.12808,-0.00327 0.25545,-0.01206 0.38281,-0.02344c0.10968,-0.00975 0.21927,-0.0175 0.32813,-0.0332c0.12333,-0.01782 0.24527,-0.04496 0.36719,-0.07031c0.07268,-0.01512 0.14668,-0.0252 0.21875,-0.04297c0.10304,-0.02542 0.2031,-0.05903 0.30469,-0.08984c0.11279,-0.03415 0.22524,-0.06868 0.33594,-0.10937c0.10285,-0.03788 0.20391,-0.07956 0.30469,-0.12305c0.11048,-0.04757 0.21851,-0.1001 0.32617,-0.1543c0.09448,-0.04766 0.18919,-0.09376 0.28125,-0.14648c0.18396,-0.10511 0.3642,-0.21689 0.53711,-0.3418c0.04258,-0.03085 0.0812,-0.06757 0.12305,-0.09961c0.14473,-0.1105 0.28478,-0.22708 0.41992,-0.35156c0.05671,-0.05235 0.11113,-0.10732 0.16602,-0.16211c0.11613,-0.11569 0.22664,-0.23687 0.33398,-0.36328c0.05231,-0.0617 0.10616,-0.12133 0.15625,-0.18555c0.14556,-0.18636 0.28494,-0.38069 0.41016,-0.58789c0.10412,-0.1723 0.19842,-0.34721 0.2832,-0.52539c0.00215,-0.0045 0.00372,-0.00916 0.00586,-0.01367c0.00239,-0.00506 0.00348,-0.01056 0.00586,-0.01563c0.08387,-0.17776 0.15907,-0.35757 0.22461,-0.54102c0.06649,-0.18612 0.12248,-0.37562 0.16992,-0.56641c0.23226,-0.93405 0.23722,-1.9151 0,-2.87695c-0.28562,-1.15736 -0.8949,-2.17985 -1.75195,-2.96875c-0.11525,-0.10609 -0.23726,-0.20535 -0.36133,-0.30273c-0.03426,-0.02689 -0.0647,-0.05778 -0.09961,-0.08398c-0.00443,-0.00334 -0.00923,-0.00644 -0.01367,-0.00977c-0.1584,-0.11818 -0.32277,-0.22853 -0.49414,-0.33203h-0.00195l-8.44727,-5.10742h-0.00391l-18.93555,-11.44531c0.18981,-0.30406 0.20238,-0.68646 0.03295,-1.00233c-0.16943,-0.31587 -0.49496,-0.51691 -0.85326,-0.52697zM18.66406,5.26758l16.10352,9.73242h-15.46289l-4.77734,-2.88672zM12,16.05664l-0.85742,1.42969c-0.524,0.875 -3.14258,5.34667 -3.14258,7.51367c0,2.206 1.794,4 4,4c2.206,0 4,-1.794 4,-4c0,-2.167 -2.61858,-6.63867 -3.14258,-7.51367zM37.5,19c0.828,0 1.5,0.672 1.5,1.5c0,0.828 -0.672,1.5 -1.5,1.5c-0.828,0 -1.5,-0.672 -1.5,-1.5c0,-0.828 0.672,-1.5 1.5,-1.5zM41,22c1.105,0 2,0.895 2,2c0,1.105 -0.895,2 -2,2c-1.105,0 -2,-0.895 -2,-2c0,-1.105 0.895,-2 2,-2zM2,37c-0.36064,-0.0051 -0.69608,0.18438 -0.87789,0.49587c-0.18181,0.3115 -0.18181,0.69676 0,1.00825c0.18181,0.3115 0.51725,0.50097 0.87789,0.49587h4c0,3.30163 2.69837,6 6,6c2.36335,0 4.33467,-1.42141 5.30664,-3.41602c0.55117,0.176 1.075,0.41602 1.69336,0.41602c2.16761,0 3.9375,-1.26762 4.99023,-3h24.00977c0.36064,0.0051 0.69608,-0.18438 0.87789,-0.49587c0.18181,-0.3115 0.18181,-0.69676 0,-1.00825c-0.18181,-0.3115 -0.51725,-0.50097 -0.87789,-0.49587h-24.42187c-0.39734,0.00016 -0.7569,0.23552 -0.91602,0.59961c-0.61736,1.41064 -2.01526,2.40039 -3.66211,2.40039c-0.63595,0 -1.23089,-0.16196 -1.78711,-0.44336c-0.26332,-0.13336 -0.57209,-0.14359 -0.84366,-0.02796c-0.27157,0.11563 -0.47819,0.34532 -0.56454,0.62757c-0.5014,1.6454 -1.99464,2.84375 -3.80469,2.84375c-2.22037,0 -4,-1.77963 -4,-4c0,-0.27497 0.02727,-0.54037 0.08008,-0.79883c0.06038,-0.29417 -0.01463,-0.5999 -0.2043,-0.83272c-0.18967,-0.23282 -0.47392,-0.3681 -0.77422,-0.36845z"></path></g></g></svg>